<svg xmlns="http://www.w3.org/2000/svg" width="38" height="38" viewBox="0 0 38 38">
    <g transform="translate(-1569 -394)">
        <circle data-name="타원 445" cx="19" cy="19" r="19" transform="translate(1569 394)" style="fill:#ff3939"/>
        <path data-name="합치기 2" d="M-3369-4955a19 19 0 0 1 19-19 19 19 0 0 1 19 19 19 19 0 0 1-19 19 19 19 0 0 1-19-19zm19 14a13.9 13.9 0 0 0 7.975-2.489l-7.976-7.975-7.975 7.976A13.9 13.9 0 0 0-3350-4941zm-14-14a13.9 13.9 0 0 0 2.489 7.976l7.976-7.976-7.976-7.976A13.9 13.9 0 0 0-3364-4955zm25.51 7.975A13.9 13.9 0 0 0-3336-4955a13.9 13.9 0 0 0-2.49-7.975l-7.975 7.975zm-11.51-11.51 7.975-7.975A13.9 13.9 0 0 0-3350-4969a13.9 13.9 0 0 0-7.976 2.489z" transform="translate(4938 5368)" style="fill:#fff;opacity:.3;mix-blend-mode:luminosity;isolation:isolate"/>
    </g>
</svg>
