<svg xmlns="http://www.w3.org/2000/svg" width="40" height="40" viewBox="0 0 40 40">
    <path d="M30.927 41.729a1.213 1.213 0 0 0 1.214-1.212v-9.73h-2.427v8.516H18.679V11.371h11.035V19.3h2.427v-9.141a1.212 1.212 0 0 0-1.214-1.212H18.679V6.215a1.214 1.214 0 0 0-1.707-1.108L5.817 9.018A1.209 1.209 0 0 0 5 10.159v30.357a1.213 1.213 0 0 0 .977 1.184l11.155 3.248a1.211 1.211 0 0 0 1.547-1.16v-2.059zm4.339-13.2H25.057a1 1 0 0 1-1-.995v-4.99a1 1 0 0 1 1-.99h10.209v-3A1 1 0 0 1 36.9 17.8l7.724 6.458a1 1 0 0 1 .023 1.549l-7.718 6.373a.994.994 0 0 1-1.663-.734z" transform="translate(-5.003 -5.002)" style="fill:#c9aa2b;fill-rule:evenodd"/>
</svg>
