<svg xmlns="http://www.w3.org/2000/svg" width="29" height="29.059" viewBox="0 0 29 29.059">
    <path data-name="패스 15801" d="M18.026 9.2a1.409 1.409 0 0 0-.3-.452l-.007-.007a1.389 1.389 0 0 0-.45-.3 1.4 1.4 0 0 0-.537-.106h-7a1.4 1.4 0 0 0 0 2.8h3.784A30.347 30.347 0 0 0 11 14.47a14.916 14.916 0 0 0-2.672 7.861 14 14 0 1 0 14-14 1.4 1.4 0 0 0 0 2.8 11.2 11.2 0 1 1-11.2 11.2 12.161 12.161 0 0 1 2.227-6.349 26.438 26.438 0 0 1 1.973-2.663v3.411a1.4 1.4 0 1 0 2.8 0v-7a1.392 1.392 0 0 0-.106-.535z" transform="translate(-7.832 -7.772)" style="fill:#222;stroke:#c9aa2b"/>
    <path data-name="패스 15832" d="M3764.821 1279.281h-5.714a1.122 1.122 0 0 1-1.143-1.1v-8.8a1.144 1.144 0 0 1 2.286 0v7.7h4.572a1.1 1.1 0 1 1 0 2.2z" transform="translate(-3744.964 -1261.721)" style="stroke-linecap:round;stroke-width:.1px;fill:#222;stroke:#c9aa2b"/>
</svg>
