<svg xmlns="http://www.w3.org/2000/svg" width="40" height="40" viewBox="0 0 40 40">
    <g data-name="그룹 39997">
        <g data-name="Zoom In">
            <g data-name="그룹 39996">
                <g data-name="그룹 39995">
                    <g data-name="그룹 39994">
                        <g data-name="그룹 39993">
                            <g data-name="그룹 39992">
                                <g data-name="그룹 39991">
                                    <g data-name="그룹 39990">
                                        <g data-name="그룹 39989">
                                            <g data-name="Play - Orange">
                                                <g data-name="Arrow Right - Orange">
                                                    <g data-name="그룹 39988">
                                                        <path data-name="패스 15798" d="m34.516 14.92-.68-1.648c2.332-5.38 2.18-5.54 1.724-6L32.58 4.3l-.3-.256h-.34c-.184 0-.724 0-5.256 2.1l-1.668-.688C22.86 0 22.64 0 22 0h-4.2c-.632 0-.876 0-2.872 5.472l-1.66.688a28.006 28.006 0 0 0-5.34-2h-.4l-3.2 3.2c-.492.5-.664.664 1.8 5.96l-.68 1.644C0 17.116 0 17.324 0 18v4.192c0 .66 0 .892 5.476 2.9l.68 1.64c-2.332 5.38-2.176 5.54-1.724 6l2.98 2.968.3.26h.348c.18 0 .716 0 5.252-2.1l1.664.692C17.128 40 17.348 40 18 40h4.188c.644 0 .872 0 2.876-5.468l1.668-.688a28.04 28.04 0 0 0 5.332 2h.4l3.236-3.228c.46-.472.62-.636-1.832-5.912l.676-1.644C40 22.884 40 22.656 40 22v-4.192c0-.66 0-.892-5.484-2.888zM20 27a7 7 0 1 1 6.984-7A7 7 0 0 1 20 27z" style="fill:#c9aa2b"/>
                                                    </g>
                                                </g>
                                            </g>
                                        </g>
                                    </g>
                                </g>
                            </g>
                        </g>
                    </g>
                </g>
            </g>
        </g>
    </g>
</svg>
